<svg xmlns="http://www.w3.org/2000/svg" width="897" height="780" viewBox="0 0 897 780">
  <g id="lawnlot" transform="translate(-10 -12)">
    <rect id="Rectangle_900" data-name="Rectangle 900" width="42" height="69" transform="translate(640 723)" fill="#828282"/>
    <rect id="Rectangle_891" data-name="Rectangle 891" width="42" height="69" transform="translate(865 723)" fill="#828282"/>
    <rect id="Rectangle_890" data-name="Rectangle 890" width="42" height="69" transform="translate(820 723)" fill="#828282"/>
    <rect id="Rectangle_889" data-name="Rectangle 889" width="42" height="69" transform="translate(775 723)" fill="#828282"/>
    <rect id="Rectangle_888" data-name="Rectangle 888" width="42" height="69" transform="translate(730 723)" fill="#828282"/>
    <rect id="Rectangle_887" data-name="Rectangle 887" width="42" height="69" transform="translate(685 723)" fill="#828282"/>
    <rect id="Rectangle_899" data-name="Rectangle 899" width="42" height="69" transform="translate(595 723)" fill="#828282"/>
    <rect id="Rectangle_898" data-name="Rectangle 898" width="42" height="69" transform="translate(550 723)" fill="#e15454"/>
    <rect id="Rectangle_897" data-name="Rectangle 897" width="42" height="69" transform="translate(505 723)" fill="#828282"/>
    <rect id="Rectangle_896" data-name="Rectangle 896" width="42" height="69" transform="translate(460 723)" fill="#828282"/>
    <rect id="Rectangle_895" data-name="Rectangle 895" width="42" height="69" transform="translate(415 723)" fill="#828282"/>
    <rect id="Rectangle_894" data-name="Rectangle 894" width="42" height="69" transform="translate(370 723)" fill="#828282"/>
    <rect id="Rectangle_893" data-name="Rectangle 893" width="42" height="69" transform="translate(325 723)" fill="#828282"/>
    <rect id="Rectangle_892" data-name="Rectangle 892" width="42" height="69" transform="translate(280 723)" fill="#828282"/>
    <rect id="Rectangle_902" data-name="Rectangle 902" width="42" height="69" transform="translate(235 723)" fill="#828282"/>
    <rect id="Rectangle_901" data-name="Rectangle 901" width="42" height="69" transform="translate(190 723)" fill="#828282"/>
    <rect id="Rectangle_906" data-name="Rectangle 906" width="42" height="69" transform="translate(145 723)" fill="#828282"/>
    <rect id="Rectangle_905" data-name="Rectangle 905" width="42" height="69" transform="translate(100 723)" fill="#828282"/>
    <rect id="Rectangle_904" data-name="Rectangle 904" width="42" height="69" transform="translate(55 723)" fill="#828282"/>
    <rect id="Rectangle_903" data-name="Rectangle 903" width="42" height="69" transform="translate(10 723)" fill="#828282"/>
    <rect id="Rectangle_900-2" data-name="Rectangle 900" width="42" height="69" transform="translate(640 644)" fill="#828282"/>
    <rect id="Rectangle_891-2" data-name="Rectangle 891" width="42" height="69" transform="translate(865 644)" fill="#828282"/>
    <rect id="Rectangle_890-2" data-name="Rectangle 890" width="42" height="69" transform="translate(820 644)" fill="#828282"/>
    <rect id="Rectangle_889-2" data-name="Rectangle 889" width="42" height="69" transform="translate(775 644)" fill="#828282"/>
    <rect id="Rectangle_888-2" data-name="Rectangle 888" width="42" height="69" transform="translate(730 644)" fill="#828282"/>
    <rect id="Rectangle_887-2" data-name="Rectangle 887" width="42" height="69" transform="translate(685 644)" fill="#828282"/>
    <rect id="Rectangle_899-2" data-name="Rectangle 899" width="42" height="69" transform="translate(595 644)" fill="#828282"/>
    <rect id="Rectangle_898-2" data-name="Rectangle 898" width="42" height="69" transform="translate(550 644)" fill="#828282"/>
    <rect id="Rectangle_897-2" data-name="Rectangle 897" width="42" height="69" transform="translate(505 644)" fill="#828282"/>
    <rect id="Rectangle_896-2" data-name="Rectangle 896" width="42" height="69" transform="translate(460 644)" fill="#828282"/>
    <rect id="Rectangle_895-2" data-name="Rectangle 895" width="42" height="69" transform="translate(415 644)" fill="#828282"/>
    <rect id="Rectangle_894-2" data-name="Rectangle 894" width="42" height="69" transform="translate(370 644)" fill="#828282"/>
    <rect id="Rectangle_893-2" data-name="Rectangle 893" width="42" height="69" transform="translate(325 644)" fill="#828282"/>
    <rect id="Rectangle_892-2" data-name="Rectangle 892" width="42" height="69" transform="translate(280 644)" fill="#828282"/>
    <rect id="Rectangle_902-2" data-name="Rectangle 902" width="42" height="69" transform="translate(235 644)" fill="#828282"/>
    <rect id="Rectangle_901-2" data-name="Rectangle 901" width="42" height="69" transform="translate(190 644)" fill="#828282"/>
    <rect id="Rectangle_906-2" data-name="Rectangle 906" width="42" height="69" transform="translate(145 644)" fill="#828282"/>
    <rect id="Rectangle_905-2" data-name="Rectangle 905" width="42" height="69" transform="translate(100 644)" fill="#828282"/>
    <rect id="Rectangle_904-2" data-name="Rectangle 904" width="42" height="69" transform="translate(55 644)" fill="#828282"/>
    <rect id="Rectangle_903-2" data-name="Rectangle 903" width="42" height="69" transform="translate(10 644)" fill="#828282"/>
    <rect id="Rectangle_900-3" data-name="Rectangle 900" width="42" height="69" transform="translate(640 565)" fill="#828282"/>
    <rect id="Rectangle_891-3" data-name="Rectangle 891" width="42" height="69" transform="translate(865 565)" fill="#e15454"/>
    <rect id="Rectangle_890-3" data-name="Rectangle 890" width="42" height="69" transform="translate(820 565)" fill="#e15454"/>
    <rect id="Rectangle_889-3" data-name="Rectangle 889" width="42" height="69" transform="translate(775 565)" fill="#828282"/>
    <rect id="Rectangle_888-3" data-name="Rectangle 888" width="42" height="69" transform="translate(730 565)" fill="#828282"/>
    <rect id="Rectangle_887-3" data-name="Rectangle 887" width="42" height="69" transform="translate(685 565)" fill="#828282"/>
    <rect id="Rectangle_899-3" data-name="Rectangle 899" width="42" height="69" transform="translate(595 565)" fill="#828282"/>
    <rect id="Rectangle_898-3" data-name="Rectangle 898" width="42" height="69" transform="translate(550 565)" fill="#828282"/>
    <rect id="Rectangle_897-3" data-name="Rectangle 897" width="42" height="69" transform="translate(505 565)" fill="#828282"/>
    <rect id="Rectangle_896-3" data-name="Rectangle 896" width="42" height="69" transform="translate(460 565)" fill="#e15454"/>
    <rect id="Rectangle_895-3" data-name="Rectangle 895" width="42" height="69" transform="translate(415 565)" fill="#828282"/>
    <rect id="Rectangle_894-3" data-name="Rectangle 894" width="42" height="69" transform="translate(370 565)" fill="#828282"/>
    <rect id="Rectangle_893-3" data-name="Rectangle 893" width="42" height="69" transform="translate(325 565)" fill="#828282"/>
    <rect id="Rectangle_892-3" data-name="Rectangle 892" width="42" height="69" transform="translate(280 565)" fill="#828282"/>
    <rect id="Rectangle_902-3" data-name="Rectangle 902" width="42" height="69" transform="translate(235 565)" fill="#828282"/>
    <rect id="Rectangle_901-3" data-name="Rectangle 901" width="42" height="69" transform="translate(190 565)" fill="#828282"/>
    <rect id="Rectangle_906-3" data-name="Rectangle 906" width="42" height="69" transform="translate(145 565)" fill="#828282"/>
    <rect id="Rectangle_905-3" data-name="Rectangle 905" width="42" height="69" transform="translate(100 565)" fill="#828282"/>
    <rect id="Rectangle_904-3" data-name="Rectangle 904" width="42" height="69" transform="translate(55 565)" fill="#828282"/>
    <rect id="Rectangle_903-3" data-name="Rectangle 903" width="42" height="69" transform="translate(10 565)" fill="#828282"/>
    <rect id="Rectangle_891-4" data-name="Rectangle 891" width="42" height="69" transform="translate(865 486)" fill="#e15454"/>
    <rect id="Rectangle_890-4" data-name="Rectangle 890" width="42" height="69" transform="translate(820 486)" fill="#828282"/>
    <rect id="Rectangle_889-4" data-name="Rectangle 889" width="42" height="69" transform="translate(775 486)" fill="#e15454"/>
    <rect id="Rectangle_888-4" data-name="Rectangle 888" width="42" height="69" transform="translate(730 486)" fill="#e15454"/>
    <rect id="Rectangle_887-4" data-name="Rectangle 887" width="42" height="69" transform="translate(685 486)" fill="#e15454"/>
    <rect id="Rectangle_900-4" data-name="Rectangle 900" width="42" height="69" transform="translate(640 486)" fill="#e15454"/>
    <rect id="Rectangle_899-4" data-name="Rectangle 899" width="42" height="69" transform="translate(595 486)" fill="#828282"/>
    <rect id="Rectangle_898-4" data-name="Rectangle 898" width="42" height="69" transform="translate(550 486)" fill="#828282"/>
    <rect id="Rectangle_897-4" data-name="Rectangle 897" width="42" height="69" transform="translate(505 486)" fill="#828282"/>
    <rect id="Rectangle_896-4" data-name="Rectangle 896" width="42" height="69" transform="translate(460 486)" fill="#828282"/>
    <rect id="Rectangle_895-4" data-name="Rectangle 895" width="42" height="69" transform="translate(415 486)" fill="#828282"/>
    <rect id="Rectangle_894-4" data-name="Rectangle 894" width="42" height="69" transform="translate(370 486)" fill="#828282"/>
    <rect id="Rectangle_893-4" data-name="Rectangle 893" width="42" height="69" transform="translate(325 486)" fill="#828282"/>
    <rect id="Rectangle_892-4" data-name="Rectangle 892" width="42" height="69" transform="translate(280 486)" fill="#828282"/>
    <rect id="Rectangle_902-4" data-name="Rectangle 902" width="42" height="69" transform="translate(235 486)" fill="#e15454"/>
    <rect id="Rectangle_901-4" data-name="Rectangle 901" width="42" height="69" transform="translate(190 486)" fill="#828282"/>
    <rect id="Rectangle_906-4" data-name="Rectangle 906" width="42" height="69" transform="translate(145 486)" fill="#e15454"/>
    <rect id="Rectangle_905-4" data-name="Rectangle 905" width="42" height="69" transform="translate(100 486)" fill="#e15454"/>
    <rect id="Rectangle_904-4" data-name="Rectangle 904" width="42" height="69" transform="translate(55 486)" fill="#828282"/>
    <rect id="Rectangle_903-4" data-name="Rectangle 903" width="42" height="69" transform="translate(10 486)" fill="#828282"/>
    <rect id="Rectangle_900-5" data-name="Rectangle 900" width="42" height="69" transform="translate(640 407)" fill="#828282"/>
    <rect id="Rectangle_891-5" data-name="Rectangle 891" width="42" height="69" transform="translate(865 407)" fill="#828282"/>
    <rect id="Rectangle_890-5" data-name="Rectangle 890" width="42" height="69" transform="translate(820 407)" fill="#828282"/>
    <rect id="Rectangle_889-5" data-name="Rectangle 889" width="42" height="69" transform="translate(775 407)" fill="#828282"/>
    <rect id="Rectangle_888-5" data-name="Rectangle 888" width="42" height="69" transform="translate(730 407)" fill="#828282"/>
    <rect id="Rectangle_887-5" data-name="Rectangle 887" width="42" height="69" transform="translate(685 407)" fill="#828282"/>
    <rect id="Rectangle_899-5" data-name="Rectangle 899" width="42" height="69" transform="translate(595 407)" fill="#828282"/>
    <rect id="Rectangle_898-5" data-name="Rectangle 898" width="42" height="69" transform="translate(550 407)" fill="#828282"/>
    <rect id="Rectangle_897-5" data-name="Rectangle 897" width="42" height="69" transform="translate(505 407)" fill="#828282"/>
    <rect id="Rectangle_896-5" data-name="Rectangle 896" width="42" height="69" transform="translate(460 407)" fill="#828282"/>
    <rect id="Rectangle_895-5" data-name="Rectangle 895" width="42" height="69" transform="translate(415 407)" fill="#828282"/>
    <rect id="Rectangle_894-5" data-name="Rectangle 894" width="42" height="69" transform="translate(370 407)" fill="#828282"/>
    <rect id="Rectangle_893-5" data-name="Rectangle 893" width="42" height="69" transform="translate(325 407)" fill="#828282"/>
    <rect id="Rectangle_892-5" data-name="Rectangle 892" width="42" height="69" transform="translate(280 407)" fill="#828282"/>
    <rect id="Rectangle_902-5" data-name="Rectangle 902" width="42" height="69" transform="translate(235 407)" fill="#828282"/>
    <rect id="Rectangle_901-5" data-name="Rectangle 901" width="42" height="69" transform="translate(190 407)" fill="#828282"/>
    <rect id="Rectangle_906-5" data-name="Rectangle 906" width="42" height="69" transform="translate(145 407)" fill="#828282"/>
    <rect id="Rectangle_905-5" data-name="Rectangle 905" width="42" height="69" transform="translate(100 407)" fill="#828282"/>
    <rect id="Rectangle_904-5" data-name="Rectangle 904" width="42" height="69" transform="translate(55 407)" fill="#828282"/>
    <rect id="Rectangle_903-5" data-name="Rectangle 903" width="42" height="69" transform="translate(10 407)" fill="#828282"/>
    <rect id="Rectangle_900-6" data-name="Rectangle 900" width="42" height="69" transform="translate(640 328)" fill="#828282"/>
    <rect id="Rectangle_891-6" data-name="Rectangle 891" width="42" height="69" transform="translate(865 328)" fill="#828282"/>
    <rect id="Rectangle_890-6" data-name="Rectangle 890" width="42" height="69" transform="translate(820 328)" fill="#828282"/>
    <rect id="Rectangle_889-6" data-name="Rectangle 889" width="42" height="69" transform="translate(775 328)" fill="#828282"/>
    <rect id="Rectangle_888-6" data-name="Rectangle 888" width="42" height="69" transform="translate(730 328)" fill="#828282"/>
    <rect id="Rectangle_887-6" data-name="Rectangle 887" width="42" height="69" transform="translate(685 328)" fill="#828282"/>
    <rect id="Rectangle_899-6" data-name="Rectangle 899" width="42" height="69" transform="translate(595 328)" fill="#828282"/>
    <rect id="Rectangle_898-6" data-name="Rectangle 898" width="42" height="69" transform="translate(550 328)" fill="#e15454"/>
    <rect id="Rectangle_897-6" data-name="Rectangle 897" width="42" height="69" transform="translate(505 328)" fill="#828282"/>
    <rect id="Rectangle_896-6" data-name="Rectangle 896" width="42" height="69" transform="translate(460 328)" fill="#828282"/>
    <rect id="Rectangle_895-6" data-name="Rectangle 895" width="42" height="69" transform="translate(415 328)" fill="#828282"/>
    <rect id="Rectangle_894-6" data-name="Rectangle 894" width="42" height="69" transform="translate(370 328)" fill="#828282"/>
    <rect id="Rectangle_893-6" data-name="Rectangle 893" width="42" height="69" transform="translate(325 328)" fill="#828282"/>
    <rect id="Rectangle_892-6" data-name="Rectangle 892" width="42" height="69" transform="translate(280 328)" fill="#828282"/>
    <rect id="Rectangle_902-6" data-name="Rectangle 902" width="42" height="69" transform="translate(235 328)" fill="#828282"/>
    <rect id="Rectangle_901-6" data-name="Rectangle 901" width="42" height="69" transform="translate(190 328)" fill="#828282"/>
    <rect id="Rectangle_906-6" data-name="Rectangle 906" width="42" height="69" transform="translate(145 328)" fill="#828282"/>
    <rect id="Rectangle_905-6" data-name="Rectangle 905" width="42" height="69" transform="translate(100 328)" fill="#828282"/>
    <rect id="Rectangle_904-6" data-name="Rectangle 904" width="42" height="69" transform="translate(55 328)" fill="#828282"/>
    <rect id="Rectangle_903-6" data-name="Rectangle 903" width="42" height="69" transform="translate(10 328)" fill="#e15454"/>
    <rect id="Rectangle_900-7" data-name="Rectangle 900" width="42" height="69" transform="translate(640 249)" fill="#828282"/>
    <rect id="Rectangle_891-7" data-name="Rectangle 891" width="42" height="69" transform="translate(865 249)" fill="#828282"/>
    <rect id="Rectangle_890-7" data-name="Rectangle 890" width="42" height="69" transform="translate(820 249)" fill="#828282"/>
    <rect id="Rectangle_889-7" data-name="Rectangle 889" width="42" height="69" transform="translate(775 249)" fill="#828282"/>
    <rect id="Rectangle_888-7" data-name="Rectangle 888" width="42" height="69" transform="translate(730 249)" fill="#828282"/>
    <rect id="Rectangle_887-7" data-name="Rectangle 887" width="42" height="69" transform="translate(685 249)" fill="#828282"/>
    <rect id="Rectangle_899-7" data-name="Rectangle 899" width="42" height="69" transform="translate(595 249)" fill="#828282"/>
    <rect id="Rectangle_898-7" data-name="Rectangle 898" width="42" height="69" transform="translate(550 249)" fill="#828282"/>
    <rect id="Rectangle_897-7" data-name="Rectangle 897" width="42" height="69" transform="translate(505 249)" fill="#828282"/>
    <rect id="Rectangle_896-7" data-name="Rectangle 896" width="42" height="69" transform="translate(460 249)" fill="#828282"/>
    <rect id="Rectangle_895-7" data-name="Rectangle 895" width="42" height="69" transform="translate(415 249)" fill="#828282"/>
    <rect id="Rectangle_894-7" data-name="Rectangle 894" width="42" height="69" transform="translate(370 249)" fill="#828282"/>
    <rect id="Rectangle_893-7" data-name="Rectangle 893" width="42" height="69" transform="translate(325 249)" fill="#828282"/>
    <rect id="Rectangle_892-7" data-name="Rectangle 892" width="42" height="69" transform="translate(280 249)" fill="#828282"/>
    <rect id="Rectangle_902-7" data-name="Rectangle 902" width="42" height="69" transform="translate(235 249)" fill="#828282"/>
    <rect id="Rectangle_901-7" data-name="Rectangle 901" width="42" height="69" transform="translate(190 249)" fill="#828282"/>
    <rect id="Rectangle_906-7" data-name="Rectangle 906" width="42" height="69" transform="translate(145 249)" fill="#828282"/>
    <rect id="Rectangle_905-7" data-name="Rectangle 905" width="42" height="69" transform="translate(100 249)" fill="#828282"/>
    <rect id="Rectangle_904-7" data-name="Rectangle 904" width="42" height="69" transform="translate(55 249)" fill="#828282"/>
    <rect id="Rectangle_903-7" data-name="Rectangle 903" width="42" height="69" transform="translate(10 249)" fill="#828282"/>
    <rect id="Rectangle_891-8" data-name="Rectangle 891" width="42" height="69" transform="translate(865 170)" fill="#828282"/>
    <rect id="Rectangle_890-8" data-name="Rectangle 890" width="42" height="69" transform="translate(820 170)" fill="#e15454"/>
    <rect id="Rectangle_889-8" data-name="Rectangle 889" width="42" height="69" transform="translate(775 170)" fill="#828282"/>
    <rect id="Rectangle_888-8" data-name="Rectangle 888" width="42" height="69" transform="translate(730 170)" fill="#828282"/>
    <rect id="Rectangle_887-8" data-name="Rectangle 887" width="42" height="69" transform="translate(685 170)" fill="#828282"/>
    <rect id="Rectangle_900-8" data-name="Rectangle 900" width="42" height="69" transform="translate(640 170)" fill="#828282"/>
    <rect id="Rectangle_899-8" data-name="Rectangle 899" width="42" height="69" transform="translate(595 170)" fill="#828282"/>
    <rect id="Rectangle_898-8" data-name="Rectangle 898" width="42" height="69" transform="translate(550 170)" fill="#828282"/>
    <rect id="Rectangle_897-8" data-name="Rectangle 897" width="42" height="69" transform="translate(505 170)" fill="#828282"/>
    <rect id="Rectangle_896-8" data-name="Rectangle 896" width="42" height="69" transform="translate(460 170)" fill="#828282"/>
    <rect id="Rectangle_895-8" data-name="Rectangle 895" width="42" height="69" transform="translate(415 170)" fill="#828282"/>
    <rect id="Rectangle_894-8" data-name="Rectangle 894" width="42" height="69" transform="translate(370 170)" fill="#828282"/>
    <rect id="Rectangle_893-8" data-name="Rectangle 893" width="42" height="69" transform="translate(325 170)" fill="#828282"/>
    <rect id="Rectangle_892-8" data-name="Rectangle 892" width="42" height="69" transform="translate(280 170)" fill="#828282"/>
    <rect id="Rectangle_902-8" data-name="Rectangle 902" width="42" height="69" transform="translate(235 170)" fill="#828282"/>
    <rect id="Rectangle_901-8" data-name="Rectangle 901" width="42" height="69" transform="translate(190 170)" fill="#828282"/>
    <rect id="Rectangle_906-8" data-name="Rectangle 906" width="42" height="69" transform="translate(145 170)" fill="#828282"/>
    <rect id="Rectangle_905-8" data-name="Rectangle 905" width="42" height="69" transform="translate(100 170)" fill="#828282"/>
    <rect id="Rectangle_904-8" data-name="Rectangle 904" width="42" height="69" transform="translate(55 170)" fill="#828282"/>
    <rect id="Rectangle_903-8" data-name="Rectangle 903" width="42" height="69" transform="translate(10 170)" fill="#e15454"/>
    <rect id="Rectangle_891-9" data-name="Rectangle 891" width="42" height="69" transform="translate(865 91)" fill="#828282"/>
    <rect id="Rectangle_890-9" data-name="Rectangle 890" width="42" height="69" transform="translate(820 91)" fill="#828282"/>
    <rect id="Rectangle_889-9" data-name="Rectangle 889" width="42" height="69" transform="translate(775 91)" fill="#828282"/>
    <rect id="Rectangle_888-9" data-name="Rectangle 888" width="42" height="69" transform="translate(730 91)" fill="#828282"/>
    <rect id="Rectangle_887-9" data-name="Rectangle 887" width="42" height="69" transform="translate(685 91)" fill="#828282"/>
    <rect id="Rectangle_900-9" data-name="Rectangle 900" width="42" height="69" transform="translate(640 91)" fill="#828282"/>
    <rect id="Rectangle_899-9" data-name="Rectangle 899" width="42" height="69" transform="translate(595 91)" fill="#828282"/>
    <rect id="Rectangle_898-9" data-name="Rectangle 898" width="42" height="69" transform="translate(550 91)" fill="#828282"/>
    <rect id="Rectangle_897-9" data-name="Rectangle 897" width="42" height="69" transform="translate(505 91)" fill="#828282"/>
    <rect id="Rectangle_896-9" data-name="Rectangle 896" width="42" height="69" transform="translate(460 91)" fill="#828282"/>
    <rect id="Rectangle_895-9" data-name="Rectangle 895" width="42" height="69" transform="translate(415 91)" fill="#828282"/>
    <rect id="Rectangle_894-9" data-name="Rectangle 894" width="42" height="69" transform="translate(370 91)" fill="#828282"/>
    <rect id="Rectangle_893-9" data-name="Rectangle 893" width="42" height="69" transform="translate(325 91)" fill="#828282"/>
    <rect id="Rectangle_892-9" data-name="Rectangle 892" width="42" height="69" transform="translate(280 91)" fill="#828282"/>
    <rect id="Rectangle_902-9" data-name="Rectangle 902" width="42" height="69" transform="translate(235 91)" fill="#828282"/>
    <rect id="Rectangle_901-9" data-name="Rectangle 901" width="42" height="69" transform="translate(190 91)" fill="#828282"/>
    <rect id="Rectangle_906-9" data-name="Rectangle 906" width="42" height="69" transform="translate(145 91)" fill="#828282"/>
    <rect id="Rectangle_905-9" data-name="Rectangle 905" width="42" height="69" transform="translate(100 91)" fill="#828282"/>
    <rect id="Rectangle_904-9" data-name="Rectangle 904" width="42" height="69" transform="translate(55 91)" fill="#828282"/>
    <rect id="Rectangle_903-9" data-name="Rectangle 903" width="42" height="69" transform="translate(10 91)" fill="#828282"/>
    <rect id="Rectangle_886" data-name="Rectangle 886" width="42" height="69" transform="translate(865 12)" fill="#e15454"/>
    <rect id="Rectangle_885" data-name="Rectangle 885" width="42" height="69" transform="translate(820 12)" fill="#828282"/>
    <rect id="Rectangle_884" data-name="Rectangle 884" width="42" height="69" transform="translate(775 12)" fill="#828282"/>
    <rect id="Rectangle_883" data-name="Rectangle 883" width="42" height="69" transform="translate(730 12)" fill="#828282"/>
    <rect id="Rectangle_882" data-name="Rectangle 882" width="42" height="69" transform="translate(685 12)" fill="#828282"/>
    <rect id="Rectangle_881" data-name="Rectangle 881" width="42" height="69" transform="translate(640 12)" fill="#828282"/>
    <rect id="Rectangle_880" data-name="Rectangle 880" width="42" height="69" transform="translate(595 12)" fill="#828282"/>
    <rect id="Rectangle_879" data-name="Rectangle 879" width="42" height="69" transform="translate(550 12)" fill="#828282"/>
    <rect id="Rectangle_878" data-name="Rectangle 878" width="42" height="69" transform="translate(505 12)" fill="#828282"/>
    <rect id="Rectangle_877" data-name="Rectangle 877" width="42" height="69" transform="translate(460 12)" fill="#828282"/>
    <rect id="Rectangle_876" data-name="Rectangle 876" width="42" height="69" transform="translate(415 12)" fill="#828282"/>
    <rect id="Rectangle_875" data-name="Rectangle 875" width="42" height="69" transform="translate(370 12)" fill="#828282"/>
    <rect id="Rectangle_874" data-name="Rectangle 874" width="42" height="69" transform="translate(325 12)" fill="#828282"/>
    <rect id="Rectangle_873" data-name="Rectangle 873" width="42" height="69" transform="translate(280 12)" fill="#828282"/>
    <rect id="Rectangle_872" data-name="Rectangle 872" width="42" height="69" transform="translate(235 12)" fill="#828282"/>
    <rect id="Rectangle_871" data-name="Rectangle 871" width="42" height="69" transform="translate(190 12)" fill="#828282"/>
    <rect id="Rectangle_870" data-name="Rectangle 870" width="42" height="69" transform="translate(145 12)" fill="#828282"/>
    <rect id="Rectangle_869" data-name="Rectangle 869" width="42" height="69" transform="translate(100 12)" fill="#828282"/>
    <rect id="Rectangle_868" data-name="Rectangle 868" width="42" height="69" transform="translate(55 12)" fill="#828282"/>
    <rect id="Rectangle_867" data-name="Rectangle 867" width="42" height="69" transform="translate(10 12)" fill="#e15454"/>
  </g>
</svg>
