<svg xmlns="http://www.w3.org/2000/svg" width="672" height="780" viewBox="0 0 672 780">
  <g id="lawnlot" transform="translate(-245 -12)">
    <rect id="Rectangle_900" data-name="Rectangle 900" width="42" height="69" transform="translate(650 723)" fill="#828282"/>
    <rect id="Rectangle_891" data-name="Rectangle 891" width="42" height="69" transform="translate(875 723)" fill="#828282"/>
    <rect id="Rectangle_890" data-name="Rectangle 890" width="42" height="69" transform="translate(830 723)" fill="#828282"/>
    <rect id="Rectangle_889" data-name="Rectangle 889" width="42" height="69" transform="translate(785 723)" fill="#e15454"/>
    <rect id="Rectangle_888" data-name="Rectangle 888" width="42" height="69" transform="translate(740 723)" fill="#e15454"/>
    <rect id="Rectangle_887" data-name="Rectangle 887" width="42" height="69" transform="translate(695 723)" fill="#e15454"/>
    <rect id="Rectangle_899" data-name="Rectangle 899" width="42" height="69" transform="translate(605 723)" fill="#e15454"/>
    <rect id="Rectangle_898" data-name="Rectangle 898" width="42" height="69" transform="translate(560 723)" fill="#828282"/>
    <rect id="Rectangle_897" data-name="Rectangle 897" width="42" height="69" transform="translate(515 723)" fill="#828282"/>
    <rect id="Rectangle_896" data-name="Rectangle 896" width="42" height="69" transform="translate(470 723)" fill="#828282"/>
    <rect id="Rectangle_895" data-name="Rectangle 895" width="42" height="69" transform="translate(425 723)" fill="#828282"/>
    <rect id="Rectangle_894" data-name="Rectangle 894" width="42" height="69" transform="translate(380 723)" fill="#828282"/>
    <rect id="Rectangle_893" data-name="Rectangle 893" width="42" height="69" transform="translate(335 723)" fill="#e15454"/>
    <rect id="Rectangle_892" data-name="Rectangle 892" width="42" height="69" transform="translate(290 723)" fill="#828282"/>
    <rect id="Rectangle_902" data-name="Rectangle 902" width="42" height="69" transform="translate(245 723)" fill="#828282"/>
    <rect id="Rectangle_900-2" data-name="Rectangle 900" width="42" height="69" transform="translate(650 644)" fill="#828282"/>
    <rect id="Rectangle_891-2" data-name="Rectangle 891" width="42" height="69" transform="translate(875 644)" fill="#828282"/>
    <rect id="Rectangle_890-2" data-name="Rectangle 890" width="42" height="69" transform="translate(830 644)" fill="#828282"/>
    <rect id="Rectangle_889-2" data-name="Rectangle 889" width="42" height="69" transform="translate(785 644)" fill="#828282"/>
    <rect id="Rectangle_888-2" data-name="Rectangle 888" width="42" height="69" transform="translate(740 644)" fill="#828282"/>
    <rect id="Rectangle_887-2" data-name="Rectangle 887" width="42" height="69" transform="translate(695 644)" fill="#828282"/>
    <rect id="Rectangle_899-2" data-name="Rectangle 899" width="42" height="69" transform="translate(605 644)" fill="#828282"/>
    <rect id="Rectangle_898-2" data-name="Rectangle 898" width="42" height="69" transform="translate(560 644)" fill="#828282"/>
    <rect id="Rectangle_897-2" data-name="Rectangle 897" width="42" height="69" transform="translate(515 644)" fill="#828282"/>
    <rect id="Rectangle_896-2" data-name="Rectangle 896" width="42" height="69" transform="translate(470 644)" fill="#e15454"/>
    <rect id="Rectangle_895-2" data-name="Rectangle 895" width="42" height="69" transform="translate(425 644)" fill="#828282"/>
    <rect id="Rectangle_894-2" data-name="Rectangle 894" width="42" height="69" transform="translate(380 644)" fill="#828282"/>
    <rect id="Rectangle_893-2" data-name="Rectangle 893" width="42" height="69" transform="translate(335 644)" fill="#828282"/>
    <rect id="Rectangle_900-3" data-name="Rectangle 900" width="42" height="69" transform="translate(650 565)" fill="#e15454"/>
    <rect id="Rectangle_891-3" data-name="Rectangle 891" width="42" height="69" transform="translate(875 565)" fill="#828282"/>
    <rect id="Rectangle_890-3" data-name="Rectangle 890" width="42" height="69" transform="translate(830 565)" fill="#828282"/>
    <rect id="Rectangle_889-3" data-name="Rectangle 889" width="42" height="69" transform="translate(785 565)" fill="#828282"/>
    <rect id="Rectangle_888-3" data-name="Rectangle 888" width="42" height="69" transform="translate(740 565)" fill="#828282"/>
    <rect id="Rectangle_887-3" data-name="Rectangle 887" width="42" height="69" transform="translate(695 565)" fill="#828282"/>
    <rect id="Rectangle_899-3" data-name="Rectangle 899" width="42" height="69" transform="translate(605 565)" fill="#828282"/>
    <rect id="Rectangle_898-3" data-name="Rectangle 898" width="42" height="69" transform="translate(560 565)" fill="#828282"/>
    <rect id="Rectangle_897-3" data-name="Rectangle 897" width="42" height="69" transform="translate(515 565)" fill="#828282"/>
    <rect id="Rectangle_896-3" data-name="Rectangle 896" width="42" height="69" transform="translate(470 565)" fill="#828282"/>
    <rect id="Rectangle_895-3" data-name="Rectangle 895" width="42" height="69" transform="translate(425 565)" fill="#828282"/>
    <rect id="Rectangle_894-3" data-name="Rectangle 894" width="42" height="69" transform="translate(380 565)" fill="#828282"/>
    <rect id="Rectangle_891-4" data-name="Rectangle 891" width="42" height="69" transform="translate(875 486)" fill="#828282"/>
    <rect id="Rectangle_890-4" data-name="Rectangle 890" width="42" height="69" transform="translate(830 486)" fill="#e15454"/>
    <rect id="Rectangle_889-4" data-name="Rectangle 889" width="42" height="69" transform="translate(785 486)" fill="#828282"/>
    <rect id="Rectangle_888-4" data-name="Rectangle 888" width="42" height="69" transform="translate(740 486)" fill="#828282"/>
    <rect id="Rectangle_887-4" data-name="Rectangle 887" width="42" height="69" transform="translate(695 486)" fill="#828282"/>
    <rect id="Rectangle_900-4" data-name="Rectangle 900" width="42" height="69" transform="translate(650 486)" fill="#828282"/>
    <rect id="Rectangle_899-4" data-name="Rectangle 899" width="42" height="69" transform="translate(605 486)" fill="#828282"/>
    <rect id="Rectangle_898-4" data-name="Rectangle 898" width="42" height="69" transform="translate(560 486)" fill="#828282"/>
    <rect id="Rectangle_897-4" data-name="Rectangle 897" width="42" height="69" transform="translate(515 486)" fill="#e15454"/>
    <rect id="Rectangle_896-4" data-name="Rectangle 896" width="42" height="69" transform="translate(470 486)" fill="#828282"/>
    <rect id="Rectangle_900-5" data-name="Rectangle 900" width="42" height="69" transform="translate(650 407)" fill="#828282"/>
    <rect id="Rectangle_891-5" data-name="Rectangle 891" width="42" height="69" transform="translate(875 407)" fill="#828282"/>
    <rect id="Rectangle_890-5" data-name="Rectangle 890" width="42" height="69" transform="translate(830 407)" fill="#828282"/>
    <rect id="Rectangle_889-5" data-name="Rectangle 889" width="42" height="69" transform="translate(785 407)" fill="#828282"/>
    <rect id="Rectangle_888-5" data-name="Rectangle 888" width="42" height="69" transform="translate(740 407)" fill="#828282"/>
    <rect id="Rectangle_887-5" data-name="Rectangle 887" width="42" height="69" transform="translate(695 407)" fill="#828282"/>
    <rect id="Rectangle_899-5" data-name="Rectangle 899" width="42" height="69" transform="translate(605 407)" fill="#828282"/>
    <rect id="Rectangle_898-5" data-name="Rectangle 898" width="42" height="69" transform="translate(560 407)" fill="#828282"/>
    <rect id="Rectangle_897-5" data-name="Rectangle 897" width="42" height="69" transform="translate(515 407)" fill="#828282"/>
    <rect id="Rectangle_896-5" data-name="Rectangle 896" width="42" height="69" transform="translate(470 407)" fill="#828282"/>
    <rect id="Rectangle_900-6" data-name="Rectangle 900" width="42" height="69" transform="translate(650 328)" fill="#828282"/>
    <rect id="Rectangle_891-6" data-name="Rectangle 891" width="42" height="69" transform="translate(875 328)" fill="#828282"/>
    <rect id="Rectangle_890-6" data-name="Rectangle 890" width="42" height="69" transform="translate(830 328)" fill="#828282"/>
    <rect id="Rectangle_889-6" data-name="Rectangle 889" width="42" height="69" transform="translate(785 328)" fill="#828282"/>
    <rect id="Rectangle_888-6" data-name="Rectangle 888" width="42" height="69" transform="translate(740 328)" fill="#828282"/>
    <rect id="Rectangle_887-6" data-name="Rectangle 887" width="42" height="69" transform="translate(695 328)" fill="#e15454"/>
    <rect id="Rectangle_899-6" data-name="Rectangle 899" width="42" height="69" transform="translate(605 328)" fill="#828282"/>
    <rect id="Rectangle_898-6" data-name="Rectangle 898" width="42" height="69" transform="translate(560 328)" fill="#828282"/>
    <rect id="Rectangle_897-6" data-name="Rectangle 897" width="42" height="69" transform="translate(515 328)" fill="#828282"/>
    <rect id="Rectangle_900-7" data-name="Rectangle 900" width="42" height="69" transform="translate(650 249)" fill="#828282"/>
    <rect id="Rectangle_891-7" data-name="Rectangle 891" width="42" height="69" transform="translate(875 249)" fill="#828282"/>
    <rect id="Rectangle_890-7" data-name="Rectangle 890" width="42" height="69" transform="translate(830 249)" fill="#828282"/>
    <rect id="Rectangle_889-7" data-name="Rectangle 889" width="42" height="69" transform="translate(785 249)" fill="#828282"/>
    <rect id="Rectangle_888-7" data-name="Rectangle 888" width="42" height="69" transform="translate(740 249)" fill="#828282"/>
    <rect id="Rectangle_887-7" data-name="Rectangle 887" width="42" height="69" transform="translate(695 249)" fill="#828282"/>
    <rect id="Rectangle_899-7" data-name="Rectangle 899" width="42" height="69" transform="translate(605 249)" fill="#828282"/>
    <rect id="Rectangle_898-7" data-name="Rectangle 898" width="42" height="69" transform="translate(560 249)" fill="#828282"/>
    <rect id="Rectangle_891-8" data-name="Rectangle 891" width="42" height="69" transform="translate(875 170)" fill="#e15454"/>
    <rect id="Rectangle_890-8" data-name="Rectangle 890" width="42" height="69" transform="translate(830 170)" fill="#828282"/>
    <rect id="Rectangle_889-8" data-name="Rectangle 889" width="42" height="69" transform="translate(785 170)" fill="#828282"/>
    <rect id="Rectangle_888-8" data-name="Rectangle 888" width="42" height="69" transform="translate(740 170)" fill="#828282"/>
    <rect id="Rectangle_887-8" data-name="Rectangle 887" width="42" height="69" transform="translate(695 170)" fill="#828282"/>
    <rect id="Rectangle_900-8" data-name="Rectangle 900" width="42" height="69" transform="translate(650 170)" fill="#e15454"/>
    <rect id="Rectangle_899-8" data-name="Rectangle 899" width="42" height="69" transform="translate(605 170)" fill="#828282"/>
    <rect id="Rectangle_891-9" data-name="Rectangle 891" width="42" height="69" transform="translate(875 91)" fill="#828282"/>
    <rect id="Rectangle_890-9" data-name="Rectangle 890" width="42" height="69" transform="translate(830 91)" fill="#828282"/>
    <rect id="Rectangle_889-9" data-name="Rectangle 889" width="42" height="69" transform="translate(785 91)" fill="#e15454"/>
    <rect id="Rectangle_888-9" data-name="Rectangle 888" width="42" height="69" transform="translate(740 91)" fill="#e15454"/>
    <rect id="Rectangle_887-9" data-name="Rectangle 887" width="42" height="69" transform="translate(695 91)" fill="#828282"/>
    <rect id="Rectangle_900-9" data-name="Rectangle 900" width="42" height="69" transform="translate(650 91)" fill="#828282"/>
    <rect id="Rectangle_886" data-name="Rectangle 886" width="42" height="69" transform="translate(875 12)" fill="#828282"/>
    <rect id="Rectangle_885" data-name="Rectangle 885" width="42" height="69" transform="translate(830 12)" fill="#e15454"/>
    <rect id="Rectangle_884" data-name="Rectangle 884" width="42" height="69" transform="translate(785 12)" fill="#828282"/>
    <rect id="Rectangle_883" data-name="Rectangle 883" width="42" height="69" transform="translate(740 12)" fill="#828282"/>
    <rect id="Rectangle_882" data-name="Rectangle 882" width="42" height="69" transform="translate(695 12)" fill="#828282"/>
  </g>
</svg>
