<svg xmlns="http://www.w3.org/2000/svg" width="582" height="516" viewBox="0 0 582 516">
  <g id="Lawn-Lot-Phase1" data-name="Lawn Lot 1 " transform="translate(-1784 -63)">
    <rect id="Not-Available" width="42" height="69" transform="translate(1925 537) rotate(90)" fill="#828282"/>
    <rect id="Not-Available-2" data-name="Not-Available" width="42" height="69" transform="translate(1997 537) rotate(90)" fill="#828282"/>
    <rect id="Not-Available-3" data-name="Not-Available" width="42" height="69" transform="translate(1853 537) rotate(90)" fill="#828282"/>
    <rect id="Available" width="42" height="69" transform="translate(2054 221)" fill="#e15454"/>
    <rect id="Available" data-name="Available" width="42" height="69" transform="translate(2009 221)" fill="#e15454"/>
    <rect id="Not-Available-4" data-name="Not-Available" width="42" height="69" transform="translate(1784 142)" fill="#828282"/>
    <rect id="Available" data-name="Available" width="42" height="69" transform="translate(2324 221)" fill="#e15454"/>
    <rect id="Available" data-name="Available" width="42" height="69" transform="translate(1964 221)" fill="#e15454"/>
    <rect id="Available" data-name="Available" width="42" height="69" transform="translate(2279 221)" fill="#e15454"/>
    <rect id="Not-Available-5" data-name="Not-Available" width="42" height="69" transform="translate(1919 221)" fill="#828282"/>
    <rect id="Available" data-name="Available" width="42" height="69" transform="translate(2234 221)" fill="#e15454"/>
    <rect id="Available" data-name="Available" width="42" height="69" transform="translate(1829 221)" fill="#e15454"/>
    <rect id="Available" data-name="Available" width="42" height="69" transform="translate(2144 221)" fill="#e15454"/>
    <rect id="Not-Available-6" data-name="Not-Available" width="42" height="69" transform="translate(1784 221)" fill="#828282"/>
    <rect id="Available" data-name="Available" width="42" height="69" transform="translate(2099 221)" fill="#e15454"/>
    <rect id="Not-Available-7" data-name="Not-Available" width="42" height="69" transform="translate(1874 221)" fill="#828282"/>
    <rect id="Available" data-name="Available" width="42" height="69" transform="translate(2189 221)" fill="#e15454"/>
    <rect id="Available" data-name="Available" width="42" height="69" transform="translate(2054 300)" fill="#e15454"/>
    <rect id="Not-Available-8" data-name="Not-Available" width="42" height="69" transform="translate(2054 379)" fill="#828282"/>
    <rect id="Not-Available-9" data-name="Not-Available" width="42" height="69" transform="translate(2054 458)" fill="#828282"/>
    <rect id="Not-Available-10" data-name="Not-Available" width="42" height="69" transform="translate(2009 300)" fill="#828282"/>
    <rect id="Available" data-name="Available" width="42" height="69" transform="translate(2324 300)" fill="#e15454"/>
    <rect id="Not-Available-11" data-name="Not-Available" width="42" height="69" transform="translate(2009 379)" fill="#828282"/>
    <rect id="Available" data-name="Available" width="42" height="69" transform="translate(2324 379)" fill="#e15454"/>
    <rect id="Not-Available-12" data-name="Not-Available" width="42" height="69" transform="translate(2009 458)" fill="#828282"/>
    <rect id="Not-Available-13" data-name="Not-Available" width="42" height="69" transform="translate(2324 458)" fill="#828282"/>
    <rect id="Not-Available-14" data-name="Not-Available" width="42" height="69" transform="translate(1964 300)" fill="#828282"/>
    <rect id="Available" data-name="Available" width="42" height="69" transform="translate(2279 300)" fill="#e15454"/>
    <rect id="Not-Available-15" data-name="Not-Available" width="42" height="69" transform="translate(1964 379)" fill="#828282"/>
    <rect id="Available" data-name="Available" width="42" height="69" transform="translate(2279 379)" fill="#e15454"/>
    <rect id="Not-Available-16" data-name="Not-Available" width="42" height="69" transform="translate(1964 458)" fill="#828282"/>
    <rect id="Not-Available-17" data-name="Not-Available" width="42" height="69" transform="translate(2279 458)" fill="#828282"/>
    <rect id="Not-Available-18" data-name="Not-Available" width="42" height="69" transform="translate(1919 300)" fill="#828282"/>
    <rect id="Available" data-name="Available" width="42" height="69" transform="translate(2234 300)" fill="#e15454"/>
    <rect id="Not-Available-19" data-name="Not-Available" width="42" height="69" transform="translate(1919 379)" fill="#828282"/>
    <rect id="Not-Available-20" data-name="Not-Available" width="42" height="69" transform="translate(2234 379)" fill="#828282"/>
    <rect id="Not-Available-21" data-name="Not-Available" width="42" height="69" transform="translate(1919 458)" fill="#828282"/>
    <rect id="Not-Available-22" data-name="Not-Available" width="42" height="69" transform="translate(2234 458)" fill="#828282"/>
    <rect id="Available" data-name="Available" width="42" height="69" transform="translate(1829 300)" fill="#e15454"/>
    <rect id="Available" data-name="Available" width="42" height="69" transform="translate(2144 300)" fill="#e15454"/>
    <rect id="Available" data-name="Available" width="42" height="69" transform="translate(1829 379)" fill="#e15454"/>
    <rect id="Available" data-name="Available" width="42" height="69" transform="translate(2144 379)" fill="#e15454"/>
    <rect id="Not-Available-23" data-name="Not-Available" width="42" height="69" transform="translate(1829 458)" fill="#828282"/>
    <rect id="Not-Available-24" data-name="Not-Available" width="42" height="69" transform="translate(2144 458)" fill="#828282"/>
    <rect id="Available" data-name="Available" width="42" height="69" transform="translate(1784 300)" fill="#e15454"/>
    <rect id="Available" data-name="Available" width="42" height="69" transform="translate(2099 300)" fill="#e15454"/>
    <rect id="Not-Available-25" data-name="Not-Available" width="42" height="69" transform="translate(1784 379)" fill="#828282"/>
    <rect id="Not-Available-26" data-name="Not-Available" width="42" height="69" transform="translate(2099 379)" fill="#828282"/>
    <rect id="Available" data-name="Available" width="42" height="69" transform="translate(1784 458)" fill="#e15454"/>
    <rect id="Not-Available-27" data-name="Not-Available" width="42" height="69" transform="translate(2099 458)" fill="#828282"/>
    <rect id="Not-Available-28" data-name="Not-Available" width="42" height="69" transform="translate(1874 300)" fill="#828282"/>
    <rect id="Available" data-name="Available" width="42" height="69" transform="translate(2189 300)" fill="#e15454"/>
    <rect id="Available" data-name="Available" width="42" height="69" transform="translate(1874 379)" fill="#e15454"/>
    <rect id="Not-Available-29" data-name="Not-Available" width="42" height="69" transform="translate(2189 379)" fill="#828282"/>
    <rect id="Not-Available-30" data-name="Not-Available" width="42" height="69" transform="translate(1874 458)" fill="#828282"/>
    <rect id="Not-Available-31" data-name="Not-Available" width="42" height="69" transform="translate(2189 458)" fill="#828282"/>
    <g id="Guard_House" data-name="Guard House">
      <g id="Rectangle_1420" data-name="Rectangle 1420" transform="translate(1856 63)" fill="#fff" stroke="#707070" stroke-width="1">
        <rect width="405" height="148" rx="5" stroke="none"/>
        <rect x="0.5" y="0.5" width="404" height="147" rx="4.5" fill="none"/>
      </g>
      <g id="Rectangle_1421" data-name="Rectangle 1421" transform="translate(2261 98)" fill="#fff" stroke="#707070" stroke-width="1">
        <rect width="28" height="79" stroke="none"/>
        <rect x="0.5" y="0.5" width="27" height="78" fill="none"/>
      </g>
      <text id="Guard_House-2" data-name="Guard House" transform="translate(1943 146)" font-size="40" font-family="SegoeUI, Segoe UI"><tspan x="0" y="0">Guard House</tspan></text>
    </g>
  </g>
</svg>
