<svg xmlns="http://www.w3.org/2000/svg" width="582" height="516" viewBox="0 0 582 516">
  <g id="Lawn_Lot_-_Phase_2" data-name="Lawn Lot - Phase 2" transform="translate(-128 -63)">
    <rect id="Not-Available" width="42" height="69" transform="translate(668 63)" fill="#828282"/>
    <rect id="Not-Available-2" data-name="Not-Available" width="42" height="69" transform="translate(623 63)" fill="#828282"/>
    <rect id="Not-Available-3" data-name="Not-Available" width="42" height="69" transform="translate(578 63)" fill="#828282"/>
    <rect id="Not-Available-4" data-name="Not-Available" width="42" height="69" transform="translate(533 63)" fill="#828282"/>
    <rect id="Not-Available-5" data-name="Not-Available" width="42" height="69" transform="translate(443 63)" fill="#828282"/>
    <rect id="Not-Available-6" data-name="Not-Available" width="42" height="69" transform="translate(398 63)" fill="#828282"/>
    <rect id="Not-Available-7" data-name="Not-Available" width="42" height="69" transform="translate(488 63)" fill="#828282"/>
    <rect id="Not-Available-8" data-name="Not-Available" width="42" height="69" transform="translate(668 142)" fill="#828282"/>
    <rect id="Not-Available-9" data-name="Not-Available" width="42" height="69" transform="translate(668 221)" fill="#828282"/>
    <rect id="Not-Available-10" data-name="Not-Available" width="42" height="69" transform="translate(668 300)" fill="#828282"/>
    <rect id="Not-Available-11" data-name="Not-Available" width="42" height="69" transform="translate(668 379)" fill="#828282"/>
    <rect id="Not-Available-12" data-name="Not-Available" width="42" height="69" transform="translate(668 458)" fill="#828282"/>
    <rect id="Not-Available-13" data-name="Not-Available" width="42" height="69" transform="translate(623 142)" fill="#828282"/>
    <rect id="Not-Available-14" data-name="Not-Available" width="42" height="69" transform="translate(623 221)" fill="#828282"/>
    <rect id="Not-Available-15" data-name="Not-Available" width="42" height="69" transform="translate(623 300)" fill="#828282"/>
    <rect id="Not-Available-16" data-name="Not-Available" width="42" height="69" transform="translate(623 379)" fill="#828282"/>
    <rect id="Not-Available-17" data-name="Not-Available" width="42" height="69" transform="translate(623 458)" fill="#828282"/>
    <rect id="Not-Available-18" data-name="Not-Available" width="42" height="69" transform="translate(578 142)" fill="#828282"/>
    <rect id="Not-Available-19" data-name="Not-Available" width="42" height="69" transform="translate(578 221)" fill="#828282"/>
    <rect id="Available" width="42" height="69" transform="translate(578 300)" fill="#e15454"/>
    <rect id="Not-Available-20" data-name="Not-Available" width="42" height="69" transform="translate(578 379)" fill="#828282"/>
    <rect id="Not-Available-21" data-name="Not-Available" width="42" height="69" transform="translate(578 458)" fill="#e15454"/>
    <rect id="Not-Available-22" data-name="Not-Available" width="42" height="69" transform="translate(353 458)" fill="#828282"/>
    <rect id="Not-Available-23" data-name="Not-Available" width="42" height="69" transform="translate(533 142)" fill="#828282"/>
    <rect id="Not-Available-24" data-name="Not-Available" width="42" height="69" transform="translate(533 221)" fill="#828282"/>
    <rect id="Not-Available-25" data-name="Not-Available" width="42" height="69" transform="translate(533 300)" fill="#828282"/>
    <rect id="Not-Available-26" data-name="Not-Available" width="42" height="69" transform="translate(533 379)" fill="#828282"/>
    <rect id="Not-Available-27" data-name="Not-Available" width="42" height="69" transform="translate(353 379)" fill="#828282"/>
    <rect id="Not-Available-28" data-name="Not-Available" width="42" height="69" transform="translate(533 458)" fill="#828282"/>
    <rect id="Not-Available-29" data-name="Not-Available" width="42" height="69" transform="translate(308 458)" fill="#828282"/>
    <rect id="Available" data-name="Available" width="42" height="69" transform="translate(443 142)" fill="#e15454"/>
    <rect id="Not-Available-30" data-name="Not-Available" width="42" height="69" transform="translate(443 221)" fill="#828282"/>
    <rect id="Not-Available-31" data-name="Not-Available" width="42" height="69" transform="translate(443 300)" fill="#828282"/>
    <rect id="Not-Available-32" data-name="Not-Available" width="42" height="69" transform="translate(443 379)" fill="#828282"/>
    <rect id="Not-Available-33" data-name="Not-Available" width="42" height="69" transform="translate(263 379)" fill="#828282"/>
    <rect id="Not-Available-34" data-name="Not-Available" width="42" height="69" transform="translate(308 300)" fill="#828282"/>
    <rect id="Not-Available-35" data-name="Not-Available" width="42" height="69" transform="translate(308 221)" fill="#828282"/>
    <rect id="Not-Available-36" data-name="Not-Available" width="42" height="69" transform="translate(308 142)" fill="#828282"/>
    <rect id="Not-Available-37" data-name="Not-Available" width="42" height="69" transform="translate(443 458)" fill="#828282"/>
    <rect id="Not-Available-38" data-name="Not-Available" width="42" height="69" transform="translate(218 458)" fill="#828282"/>
    <rect id="Not-Available-39" data-name="Not-Available" width="42" height="69" transform="translate(398 142)" fill="#828282"/>
    <rect id="Not-Available-40" data-name="Not-Available" width="42" height="69" transform="translate(398 221)" fill="#828282"/>
    <rect id="Not-Available-41" data-name="Not-Available" width="42" height="69" transform="translate(398 300)" fill="#828282"/>
    <rect id="Available" data-name="Available" width="42" height="69" transform="translate(398 379)" fill="#e15454"/>
    <rect id="Not-Available-42" data-name="Not-Available" width="42" height="69" transform="translate(218 379)" fill="#828282"/>
    <rect id="Not-Available-43" data-name="Not-Available" width="42" height="69" transform="translate(263 300)" fill="#828282"/>
    <rect id="Not-Available-44" data-name="Not-Available" width="42" height="69" transform="translate(263 221)" fill="#828282"/>
    <rect id="Not-Available-45" data-name="Not-Available" width="42" height="69" transform="translate(173 379)" fill="#828282"/>
    <rect id="Not-Available-46" data-name="Not-Available" width="42" height="69" transform="translate(218 300)" fill="#828282"/>
    <rect id="Not-Available-47" data-name="Not-Available" width="42" height="69" transform="translate(128 379)" fill="#828282"/>
    <rect id="Not-Available-48" data-name="Not-Available" width="42" height="69" transform="translate(398 458)" fill="#828282"/>
    <rect id="Not-Available-49" data-name="Not-Available" width="42" height="69" transform="translate(128 458)" fill="#828282"/>
    <rect id="Not-Available-50" data-name="Not-Available" width="42" height="69" transform="translate(173 458)" fill="#828282"/>
    <rect id="Not-Available-51" data-name="Not-Available" width="42" height="69" transform="translate(488 142)" fill="#828282"/>
    <rect id="Not-Available-52" data-name="Not-Available" width="42" height="69" transform="translate(488 221)" fill="#828282"/>
    <rect id="Not-Available-53" data-name="Not-Available" width="42" height="69" transform="translate(488 300)" fill="#828282"/>
    <rect id="Not-Available-54" data-name="Not-Available" width="42" height="69" transform="translate(488 379)" fill="#828282"/>
    <rect id="Not-Available-55" data-name="Not-Available" width="42" height="69" transform="translate(308 379)" fill="#828282"/>
    <rect id="Not-Available-56" data-name="Not-Available" width="42" height="69" transform="translate(353 300)" fill="#828282"/>
    <rect id="Not-Available-57" data-name="Not-Available" width="42" height="69" transform="translate(353 221)" fill="#828282"/>
    <rect id="Not-Available-58" data-name="Not-Available" width="42" height="69" transform="translate(353 142)" fill="#828282"/>
    <rect id="Not-Available-59" data-name="Not-Available" width="42" height="69" transform="translate(488 458)" fill="#828282"/>
    <rect id="Not-Available-60" data-name="Not-Available" width="42" height="69" transform="translate(263 458)" fill="#828282"/>
    <rect id="Not-Available-61" data-name="Not-Available" width="42" height="69" transform="translate(710 537) rotate(90)" fill="#828282"/>
    <rect id="Not-Available-62" data-name="Not-Available" width="42" height="69" transform="translate(638 537) rotate(90)" fill="#828282"/>
    <rect id="Available" data-name="Available" width="42" height="69" transform="translate(566 537) rotate(90)" fill="#e15454"/>
    <rect id="Not-Available-63" data-name="Not-Available" width="42" height="69" transform="translate(494 537) rotate(90)" fill="#828282"/>
    <rect id="Not-Available-64" data-name="Not-Available" width="42" height="69" transform="translate(422 537) rotate(90)" fill="#828282"/>
    <rect id="Available" data-name="Available" width="42" height="69" transform="translate(350 537) rotate(90)" fill="#e15454"/>
    <rect id="Not-Available-65" data-name="Not-Available" width="42" height="69" transform="translate(278 537) rotate(90)" fill="#828282"/>
  </g>
</svg>
