<svg xmlns="http://www.w3.org/2000/svg" width="897" height="516" viewBox="0 0 897 516">
  <g id="Lawn-Lot-Phase-1" data-name="Lawn Lot 1 - Phase 2" transform="translate(-817 -63)">
    <rect id="Not-Available" width="42" height="69" transform="translate(1714 537) rotate(90)" fill="#828282"/>
    <rect id="Not-Available-2" data-name="Not-Available" width="42" height="69" transform="translate(1642 537) rotate(90)" fill="#828282"/>
    <rect id="Not-Available-3" data-name="Not-Available" width="42" height="69" transform="translate(1570 537) rotate(90)" fill="#828282"/>
    <rect id="Available" width="42" height="69" transform="translate(1498 537) rotate(90)" fill="#e15454"/>
    <rect id="Not-Available-4" data-name="Not-Available" width="42" height="69" transform="translate(1426 537) rotate(90)" fill="#828282"/>
    <rect id="Not-Available-5" data-name="Not-Available" width="42" height="69" transform="translate(1282 537) rotate(90)" fill="#828282"/>
    <rect id="Not-Available-6" data-name="Not-Available" width="42" height="69" transform="translate(994 537) rotate(90)" fill="#828282"/>
    <rect id="Not-Available-7" data-name="Not-Available" width="42" height="69" transform="translate(1066 537) rotate(90)" fill="#828282"/>
    <rect id="Available" data-name="Available" width="42" height="69" transform="translate(1138 537) rotate(90)" fill="#e15454"/>
    <rect id="Not-Available-8" data-name="Not-Available" width="42" height="69" transform="translate(1354 537) rotate(90)" fill="#828282"/>
    <rect id="Not-Available-9" data-name="Not-Available" width="42" height="69" transform="translate(1210 537) rotate(90)" fill="#828282"/>
    <rect id="Not-Available-10" data-name="Not-Available" width="42" height="69" transform="translate(922 537) rotate(90)" fill="#828282"/>
    <rect id="Not-Available-11" data-name="Not-Available" width="42" height="69" transform="translate(1087 63)" fill="#828282"/>
    <rect id="Not-Available-12" data-name="Not-Available" width="42" height="69" transform="translate(1402 63)" fill="#828282"/>
    <rect id="Not-Available-13" data-name="Not-Available" width="42" height="69" transform="translate(1042 63)" fill="#828282"/>
    <rect id="Not-Available-14" data-name="Not-Available" width="42" height="69" transform="translate(1357 63)" fill="#828282"/>
    <rect id="Not-Available-15" data-name="Not-Available" width="42" height="69" transform="translate(997 63)" fill="#828282"/>
    <rect id="Available" data-name="Available" width="42" height="69" transform="translate(1627 63)" fill="#e15454"/>
    <rect id="Not-Available-16" data-name="Not-Available" width="42" height="69" transform="translate(1312 63)" fill="#828282"/>
    <rect id="Not-Available-17" data-name="Not-Available" width="42" height="69" transform="translate(952 63)" fill="#828282"/>
    <rect id="Not-Available-18" data-name="Not-Available" width="42" height="69" transform="translate(1582 63)" fill="#828282"/>
    <rect id="Not-Available-19" data-name="Not-Available" width="42" height="69" transform="translate(1267 63)" fill="#828282"/>
    <rect id="Not-Available-20" data-name="Not-Available" width="42" height="69" transform="translate(862 63)" fill="#828282"/>
    <rect id="Not-Available-21" data-name="Not-Available" width="42" height="69" transform="translate(1492 63)" fill="#828282"/>
    <rect id="Not-Available-22" data-name="Not-Available" width="42" height="69" transform="translate(1177 63)" fill="#828282"/>
    <rect id="Available" data-name="Available" width="42" height="69" transform="translate(817 63)" fill="#e15454"/>
    <rect id="Not-Available-23" data-name="Not-Available" width="42" height="69" transform="translate(1447 63)" fill="#828282"/>
    <rect id="Not-Available-24" data-name="Not-Available" width="42" height="69" transform="translate(1132 63)" fill="#828282"/>
    <rect id="Not-Available-25" data-name="Not-Available" width="42" height="69" transform="translate(907 63)" fill="#828282"/>
    <rect id="Available" data-name="Available" width="42" height="69" transform="translate(1537 63)" fill="#e15454"/>
    <rect id="Not-Available-26" data-name="Not-Available" width="42" height="69" transform="translate(1222 63)" fill="#828282"/>
    <rect id="Not-Available-27" data-name="Not-Available" width="42" height="69" transform="translate(1087 142)" fill="#828282"/>
    <rect id="Not-Available-28" data-name="Not-Available" width="42" height="69" transform="translate(1402 142)" fill="#828282"/>
    <rect id="Not-Available-29" data-name="Not-Available" width="42" height="69" transform="translate(1087 221)" fill="#828282"/>
    <rect id="Not-Available-30" data-name="Not-Available" width="42" height="69" transform="translate(1402 221)" fill="#828282"/>
    <rect id="Not-Available-31" data-name="Not-Available" width="42" height="69" transform="translate(1087 300)" fill="#828282"/>
    <rect id="Not-Available-32" data-name="Not-Available" width="42" height="69" transform="translate(1402 300)" fill="#828282"/>
    <rect id="Not-Available-33" data-name="Not-Available" width="42" height="69" transform="translate(1087 379)" fill="#828282"/>
    <rect id="Not-Available-34" data-name="Not-Available" width="42" height="69" transform="translate(1402 379)" fill="#828282"/>
    <rect id="Not-Available-35" data-name="Not-Available" width="42" height="69" transform="translate(1087 458)" fill="#828282"/>
    <rect id="Not-Available-36" data-name="Not-Available" width="42" height="69" transform="translate(1402 458)" fill="#828282"/>
    <rect id="Not-Available-37" data-name="Not-Available" width="42" height="69" transform="translate(1042 142)" fill="#828282"/>
    <rect id="Not-Available-38" data-name="Not-Available" width="42" height="69" transform="translate(1357 142)" fill="#828282"/>
    <rect id="Available" data-name="Available" width="42" height="69" transform="translate(1042 221)" fill="#e15454"/>
    <rect id="Not-Available-39" data-name="Not-Available" width="42" height="69" transform="translate(1357 221)" fill="#828282"/>
    <rect id="Not-Available-40" data-name="Not-Available" width="42" height="69" transform="translate(1042 300)" fill="#828282"/>
    <rect id="Not-Available-41" data-name="Not-Available" width="42" height="69" transform="translate(1357 300)" fill="#828282"/>
    <rect id="Available" data-name="Available" width="42" height="69" transform="translate(1042 379)" fill="#e15454"/>
    <rect id="Not-Available-42" data-name="Not-Available" width="42" height="69" transform="translate(1357 379)" fill="#828282"/>
    <rect id="Not-Available-43" data-name="Not-Available" width="42" height="69" transform="translate(1042 458)" fill="#828282"/>
    <rect id="Not-Available-44" data-name="Not-Available" width="42" height="69" transform="translate(1357 458)" fill="#828282"/>
    <rect id="Not-Available-45" data-name="Not-Available" width="42" height="69" transform="translate(997 142)" fill="#828282"/>
    <rect id="Not-Available-46" data-name="Not-Available" width="42" height="69" transform="translate(1627 142)" fill="#828282"/>
    <rect id="Not-Available-47" data-name="Not-Available" width="42" height="69" transform="translate(1312 142)" fill="#828282"/>
    <rect id="Not-Available-48" data-name="Not-Available" width="42" height="69" transform="translate(997 221)" fill="#828282"/>
    <rect id="Not-Available-49" data-name="Not-Available" width="42" height="69" transform="translate(1627 221)" fill="#828282"/>
    <rect id="Not-Available-50" data-name="Not-Available" width="42" height="69" transform="translate(1312 221)" fill="#828282"/>
    <rect id="Not-Available-51" data-name="Not-Available" width="42" height="69" transform="translate(997 300)" fill="#828282"/>
    <rect id="Available" data-name="Available" width="42" height="69" transform="translate(1627 300)" fill="#e15454"/>
    <rect id="Not-Available-52" data-name="Not-Available" width="42" height="69" transform="translate(1312 300)" fill="#828282"/>
    <rect id="Availabl" data-name="Available" width="42" height="69" transform="translate(997 379)" fill="#e15454"/>
    <rect id="Not-Available-53" data-name="Not-Available" width="42" height="69" transform="translate(1627 379)" fill="#828282"/>
    <rect id="Not-Available-54" data-name="Not-Available" width="42" height="69" transform="translate(1312 379)" fill="#828282"/>
    <rect id="Not-Available-55" data-name="Not-Available" width="42" height="69" transform="translate(997 458)" fill="#828282"/>
    <rect id="Not-Available-56" data-name="Not-Available" width="42" height="69" transform="translate(1627 458)" fill="#828282"/>
    <rect id="Available" data-name="Available" width="42" height="69" transform="translate(1312 458)" fill="#e15454"/>
    <rect id="Not-Available-57" data-name="Not-Available" width="42" height="69" transform="translate(952 142)" fill="#828282"/>
    <rect id="Available" data-name="Available" width="42" height="69" transform="translate(1582 142)" fill="#e15454"/>
    <rect id="Not-Available-58" data-name="Not-Available" width="42" height="69" transform="translate(1267 142)" fill="#828282"/>
    <rect id="Available" data-name="Available" width="42" height="69" transform="translate(952 221)" fill="#e15454"/>
    <rect id="Available" data-name="Available" width="42" height="69" transform="translate(1582 221)" fill="#e15454"/>
    <rect id="Not-Available-59" data-name="Not-Available" width="42" height="69" transform="translate(1267 221)" fill="#828282"/>
    <rect id="Not-Available-60" data-name="Not-Available" width="42" height="69" transform="translate(952 300)" fill="#828282"/>
    <rect id="Not-Available-61" data-name="Not-Available" width="42" height="69" transform="translate(1582 300)" fill="#828282"/>
    
    <rect id="Available" data-name="Available" width="42" height="69" transform="translate(1267 300)" fill="#e15454"/>

    <rect id="Not-Available-62" data-name="Not-Available" width="42" height="69" transform="translate(952 379)" fill="#828282"/>
    <rect id="Not-Available-63" data-name="Not-Available" width="42" height="69" transform="translate(1582 379)" fill="#828282"/>
    <rect id="Not-Available-64" data-name="Not-Available" width="42" height="69" transform="translate(1267 379)" fill="#828282"/>
    <rect id="Not-Available-65" data-name="Not-Available" width="42" height="69" transform="translate(952 458)" fill="#828282"/>
    <rect id="Not-Available-66" data-name="Not-Available" width="42" height="69" transform="translate(1582 458)" fill="#828282"/>
    <rect id="Not-Available-67" data-name="Not-Available" width="42" height="69" transform="translate(1267 458)" fill="#828282"/>
    <rect id="Not-Available-68" data-name="Not-Available" width="42" height="69" transform="translate(862 142)" fill="#828282"/>
    <rect id="Not-Available-69" data-name="Not-Available" width="42" height="69" transform="translate(1492 142)" fill="#828282"/>
    <rect id="Not-Available-70" data-name="Not-Available" width="42" height="69" transform="translate(1177 142)" fill="#828282"/>
    <rect id="Not-Available-71" data-name="Not-Available" width="42" height="69" transform="translate(862 221)" fill="#828282"/>

    <rect id="Available" data-name="Available" width="42" height="69" transform="translate(1492 221)" fill="#e15454"/>

    <rect id="Not-Available-72" data-name="Not-Available" width="42" height="69" transform="translate(1177 221)" fill="#828282"/>
    <rect id="Not-Available-73" data-name="Not-Available" width="42" height="69" transform="translate(862 300)" fill="#828282"/>
    <rect id="Not-Available-74" data-name="Not-Available" width="42" height="69" transform="translate(1492 300)" fill="#828282"/>
    <rect id="Not-Available-75" data-name="Not-Available" width="42" height="69" transform="translate(1177 300)" fill="#828282"/>
    <rect id="Not-Available-76" data-name="Not-Available" width="42" height="69" transform="translate(862 379)" fill="#828282"/>
    <rect id="Not-Available-77" data-name="Not-Available" width="42" height="69" transform="translate(1492 379)" fill="#828282"/>
    <rect id="Not-Available-78" data-name="Not-Available" width="42" height="69" transform="translate(1177 379)" fill="#828282"/>
    <rect id="Not-Available-79" data-name="Not-Available" width="42" height="69" transform="translate(862 458)" fill="#828282"/>
    <rect id="Not-Available-80" data-name="Not-Available" width="42" height="69" transform="translate(1492 458)" fill="#828282"/>
    <rect id="Not-Available-81" data-name="Not-Available" width="42" height="69" transform="translate(1177 458)" fill="#828282"/>
    <rect id="Not-Available-82" data-name="Not-Available" width="42" height="69" transform="translate(817 142)" fill="#828282"/>
    <rect id="Not-Available-83" data-name="Not-Available" width="42" height="69" transform="translate(1447 142)" fill="#828282"/>
    <rect id="Not-Available-84" data-name="Not-Available" width="42" height="69" transform="translate(1132 142)" fill="#828282"/>
    <rect id="Not-Available-85" data-name="Not-Available" width="42" height="69" transform="translate(817 221)" fill="#828282"/>

    <rect id="Available" data-name="Available" width="42" height="69" transform="translate(1447 221)" fill="#e15454"/>

    <rect id="Not-Available-86" data-name="Not-Available" width="42" height="69" transform="translate(1132 221)" fill="#828282"/>
    <rect id="Not-Available-87" data-name="Not-Available" width="42" height="69" transform="translate(817 300)" fill="#828282"/>
    <rect id="Not-Available-88" data-name="Not-Available" width="42" height="69" transform="translate(1447 300)" fill="#828282"/>
    <rect id="Not-Available-89" data-name="Not-Available" width="42" height="69" transform="translate(1132 300)" fill="#828282"/>
    <rect id="Not-Available-90" data-name="Not-Available" width="42" height="69" transform="translate(817 379)" fill="#828282"/>
    <rect id="Not-Available-91" data-name="Not-Available" width="42" height="69" transform="translate(1447 379)" fill="#828282"/>

    <rect id="Available" data-name="Available" width="42" height="69" transform="translate(1132 379)" fill="#e15454"/>

    <rect id="Not-Available-92" data-name="Not-Available" width="42" height="69" transform="translate(817 458)" fill="#828282"/>
    <rect id="Not-Available-93" data-name="Not-Available" width="42" height="69" transform="translate(1447 458)" fill="#828282"/>
    <rect id="Not-Available-94" data-name="Not-Available" width="42" height="69" transform="translate(1132 458)" fill="#828282"/>
    <rect id="Not-Available-95" data-name="Not-Available" width="42" height="69" transform="translate(907 142)" fill="#828282"/>
    <rect id="Not-Available-96" data-name="Not-Available" width="42" height="69" transform="translate(1537 142)" fill="#828282"/>
    <rect id="Not-Available-97" data-name="Not-Available" width="42" height="69" transform="translate(1222 142)" fill="#828282"/>

    <rect id="Available" data-name="Available" width="42" height="69" transform="translate(907 221)" fill="#e15454"/>
    <rect id="Available" data-name="Available" width="42" height="69" transform="translate(1537 221)" fill="#e15454"/>

    <rect id="Not-Available-98" data-name="Not-Available" width="42" height="69" transform="translate(1222 221)" fill="#828282"/>
    <rect id="Not-Available-99" data-name="Not-Available" width="42" height="69" transform="translate(907 300)" fill="#828282"/>
    <rect id="Not-Available-100" data-name="Not-Available" width="42" height="69" transform="translate(1537 300)" fill="#828282"/>
    <rect id="Not-Available-101" data-name="Not-Available" width="42" height="69" transform="translate(1222 300)" fill="#828282"/>
    <rect id="Not-Available-102" data-name="Not-Available" width="42" height="69" transform="translate(907 379)" fill="#828282"/>
    <rect id="Not-Available-103" data-name="Not-Available" width="42" height="69" transform="translate(1537 379)" fill="#828282"/>
    <rect id="Not-Available-104" data-name="Not-Available" width="42" height="69" transform="translate(1222 379)" fill="#828282"/>
    <rect id="Not-Available-105" data-name="Not-Available" width="42" height="69" transform="translate(907 458)" fill="#828282"/>
    <rect id="Not-Available-106" data-name="Not-Available" width="42" height="69" transform="translate(1537 458)" fill="#828282"/>
    <rect id="Not-Available-107" data-name="Not-Available" width="42" height="69" transform="translate(1222 458)" fill="#828282"/>
  </g>
</svg>
